<svg xmlns="http://www.w3.org/2000/svg" width="1200" height="630" viewBox="0 0 1200 630">
  <defs>
    <linearGradient id="bg" x1="0" y1="0" x2="1" y2="1">
      <stop offset="0" stop-color="#02040a"/>
      <stop offset="1" stop-color="#060c1c"/>
    </linearGradient>
    <linearGradient id="g" x1="0" y1="0" x2="1" y2="1">
      <stop offset="0" stop-color="#7dd3fc"/>
      <stop offset="1" stop-color="#2563eb"/>
    </linearGradient>
    <radialGradient id="glow" cx="0.5" cy="0.4" r="0.6">
      <stop offset="0" stop-color="#1d4ed8" stop-opacity="0.5"/>
      <stop offset="1" stop-color="#1d4ed8" stop-opacity="0"/>
    </radialGradient>
  </defs>
  <rect width="1200" height="630" fill="url(#bg)"/>
  <rect width="1200" height="630" fill="url(#glow)"/>
  <g stroke="#1e3a8a" stroke-opacity="0.18">
    <g>
      <line x1="0" y1="105" x2="1200" y2="105"/><line x1="0" y1="210" x2="1200" y2="210"/>
      <line x1="0" y1="315" x2="1200" y2="315"/><line x1="0" y1="420" x2="1200" y2="420"/>
      <line x1="0" y1="525" x2="1200" y2="525"/>
      <line x1="150" y1="0" x2="150" y2="630"/><line x1="300" y1="0" x2="300" y2="630"/>
      <line x1="450" y1="0" x2="450" y2="630"/><line x1="600" y1="0" x2="600" y2="630"/>
      <line x1="750" y1="0" x2="750" y2="630"/><line x1="900" y1="0" x2="900" y2="630"/>
      <line x1="1050" y1="0" x2="1050" y2="630"/>
    </g>
  </g>
  <circle cx="975" cy="315" r="40" fill="url(#g)"/>
  <circle cx="975" cy="315" r="85" fill="none" stroke="url(#g)" stroke-width="2" stroke-opacity="0.6"/>
  <circle cx="975" cy="315" r="135" fill="none" stroke="url(#g)" stroke-width="1.5" stroke-opacity="0.3"/>
  <text x="90" y="250" font-family="Inter, sans-serif" font-size="120" font-weight="800" fill="#eaf2ff" letter-spacing="6">NOAH</text>
  <text x="92" y="318" font-family="JetBrains Mono, monospace" font-size="26" fill="#7dd3fc" letter-spacing="3">AI SYSTEM ADMINISTRATOR</text>
  <text x="92" y="390" font-family="Inter, sans-serif" font-size="30" fill="#9fb4d9">Your operating system now has an AI administrator.</text>
  <text x="92" y="540" font-family="JetBrains Mono, monospace" font-size="24" fill="#5b9dff">$ npm install -g noah-agent@latest</text>
</svg>
